<svg height="512pt" viewBox="-31 0 512 512.00025" width="512pt" xmlns="http://www.w3.org/2000/svg"><path d="m360 15c0 8.398438-6.601562 15-15 15h-30c-31.800781 0-60.300781 20.097656-70.800781 50.097656h-38.402344c-10.496094-30-39-50.097656-70.796875-50.097656h-30c-8.402344 0-15-6.601562-15-15 0-8.402344 6.597656-15 15-15h30c37.5 0 71.398438 20.097656 90 51.300781 18.597656-31.199219 52.5-51.300781 90-51.300781h30c8.398438 0 15 6.597656 15 15zm0 0" fill="#00ab94"/><path d="m224.867188 89.148438h.265624c-.050781-.015626-.082031-.058594-.132812-.078126-.050781.019532-.082031.0625-.132812.078126zm0 0" fill="#895d3c"/><path d="m151.582031 248.289062-30 60c-1.039062 2.082032-1.582031 4.382813-1.582031 6.710938v81.152344c-71.019531 37.476562-107.515625 83.136718-115.605469 90.242187-5.859375 5.859375-5.859375 15.351563 0 21.210938s15.351563 5.859375 21.210938 0c7.714843-6.75 46.03125-54.152344 116.105469-89.1875 1.117187-.558594 3-1.917969 3.894531-2.8125l56.660156-56.660157zm0 0" fill="#00ab94"/><path d="m445.304688 486.082031c-8.171876-7.179687-44.960938-52.96875-115.601563-90.246093v-81.148438c0-2.332031-.542969-4.628906-1.582031-6.710938l-30-60-50.699219 110.65625 56.675781 56.65625c.894532.898438 2.777344 2.253907 3.894532 2.816407 72.152343 36.074219 107.003906 81.222656 116.105468 89.1875 5.859375 5.859375 15.351563 5.859375 21.210938 0 5.855468-5.859375 5.855468-15.351563-.003906-21.210938zm0 0" fill="#009184"/><path d="m439.746094 270.777344c-56.058594-18.703125-107.742188-50.589844-149.726563-92.132813 45.589844-24.332031 87.367188-54.820312 123.960938-91.414062l1.625-1.625c5.859375-5.859375 5.039062-14.546875-.804688-20.40625-5.90625-5.859375-16.160156-5.007813-22.03125.820312-37.589843 37.589844-80.757812 68.703125-128.320312 92.492188l-2.050781 35.097656 4.921874 4.921875c45.511719 45.511719 101.851563 80.332031 162.933594 100.691406 7.910156 2.636719 16.367188-1.667968 18.96875-9.476562 2.621094-7.867188-1.625-16.363282-9.476562-18.96875zm0 0" fill="#009184"/><path d="m55.605469 64.394531c-5.847657-5.84375-14.53125-5.007812-20.40625.804688-5.84375 5.859375-5.039063 16.171875.820312 22.03125 36.59375 36.59375 78.367188 67.085937 123.957031 91.414062-41.980468 41.542969-93.667968 73.433594-149.722656 92.132813-7.851562 2.605468-12.101562 11.105468-9.480468 18.96875 2.609374 7.816406 11.066406 12.113281 18.972656 9.480468 61.082031-20.363281 117.421875-55.183593 162.933594-100.695312l2.871093-40.019531c-47.5625-23.789063-90.730469-54.902344-129.945312-94.117188zm0 0" fill="#00ab94"/><path d="m360 15c0 8.398438-6.601562 15-15 15h-30c-31.800781 0-60.300781 20.097656-70.800781 50.097656h-19.199219v-28.796875c18.597656-31.199219 52.5-51.300781 90-51.300781h30c8.398438 0 15 6.597656 15 15zm0 0" fill="#009184"/><path d="m287.097656 175.800781-12.300781 64.199219h-99.597656l-12.300781-64.199219 17.402343-103.199219c1.199219-7.203124 7.5-12.601562 14.699219-12.601562h60c7.199219 0 13.5 5.402344 14.699219 12.601562zm0 0" fill="#00ab94"/><path d="m287.097656 175.800781-12.300781 64.199219h-49.796875v-180h30c7.199219 0 13.5 5.398438 14.699219 12.597656zm0 0" fill="#009184"/><path d="m299.699219 252.597656c.601562 2.101563.300781 4.503906-.300781 6.601563l-59.398438 209.902343h-30l-59.398438-209.902343c-.601562-2.097657-.902343-4.5-.300781-6.601563l6.296875-38.101562 6.300782-38.695313c15 22.5 40.199218 34.199219 62.101562 34.199219 21.597656 0 47.097656-11.398438 62.097656-34.199219l6.300782 38.699219zm0 0" fill="#61d7a8"/><path d="m299.699219 252.597656c.601562 2.101563.300781 4.503906-.300781 6.601563l-59.398438 209.902343h-15v-259.101562c21.597656 0 47.097656-11.398438 62.097656-34.199219l6.300782 38.699219zm0 0" fill="#00ab94"/><path d="m240 165v304.101562l-.601562 2.097657c-1.800782 6.300781-7.800782 10.800781-14.398438 10.800781-6.601562 0-12.601562-4.5-14.398438-10.800781l-.601562-2.097657v-304.101562c0-8.402344 6.597656-15 15-15 8.398438 0 15 6.597656 15 15zm0 0" fill="#00ab94"/><path d="m240 165v304.101562l-.601562 2.097657c-1.800782 6.300781-7.800782 10.800781-14.398438 10.800781v-332c8.398438 0 15 6.597656 15 15zm0 0" fill="#009184"/></svg>